<svg width="279" height="173" viewBox="0 0 279 173" fill="none" xmlns="http://www.w3.org/2000/svg">
  <path
    d="M5.57686 40.3509C6.80224 33.271 9.38916 26.9739 13.3376 21.4597C17.286 15.8774 22.2556 11.5545 28.2464 8.49108C34.2371 5.35955 40.7725 3.79379 47.8524 3.79379C53.7751 3.79379 58.9489 4.88302 63.3739 7.06147C67.7989 9.23992 71.2368 12.3374 73.6875 16.3539C76.1383 20.3704 77.4658 25.1018 77.67 30.5479H56.1238C55.3068 27.8929 53.8772 25.8506 51.8349 24.421C49.7926 22.9914 47.2738 22.2766 44.2784 22.2766C39.6492 22.2766 35.6667 23.9104 32.331 27.1781C28.9952 30.4458 26.8508 34.8367 25.8977 40.3509C25.6254 41.7805 25.4893 43.3123 25.4893 44.9461C25.4893 49.1669 26.5785 52.5026 28.7569 54.9534C31.0035 57.3361 34.0669 58.5274 37.9473 58.5274C40.9427 58.5274 43.6998 57.8126 46.2186 56.383C48.8055 54.9534 50.9499 52.9111 52.6518 50.2561H74.3002C71.0325 58.4934 65.8928 65.0287 58.8809 69.8622C51.869 74.6275 43.87 77.0102 34.8838 77.0102C28.6889 77.0102 23.3108 75.8189 18.7497 73.4362C14.2566 71.0535 10.8187 67.6837 8.43608 63.3268C6.0534 58.9699 4.86206 53.9322 4.86206 48.2138C4.86206 45.5588 5.10033 42.9378 5.57686 40.3509ZM126.87 18.7026C132.453 18.7026 136.809 20.3024 139.941 23.502C143.073 26.7016 144.638 31.1606 144.638 36.879C144.638 38.8532 144.434 40.9296 144.026 43.108L138.103 76.4996H118.088L123.5 45.763C123.705 44.7419 123.807 43.8228 123.807 43.0059C123.807 40.5552 123.092 38.649 121.662 37.2875C120.301 35.926 118.361 35.2452 115.842 35.2452C113.051 35.2452 110.668 36.0961 108.694 37.7981C106.72 39.5 105.392 41.8486 104.711 44.844L99.095 76.4996H78.9784L92.3554 0.93457H112.472L107.775 27.3823C110.021 24.7954 112.778 22.7191 116.046 21.1533C119.314 19.5195 122.922 18.7026 126.87 18.7026Z"
    fill="#35BE97" />
  <path
    d="M144.972 142.887H126.246L121.902 151.5H106.473L135.01 98.6952H151.937L161.824 151.5H146.32L144.972 142.887ZM143.249 131.727L140.627 114.574L131.939 131.727H143.249ZM154.484 88.284L134.411 95.6243L136.208 85.6624L156.431 77.1986L154.484 88.284ZM189.604 108.957C192.45 108.957 194.822 109.531 196.719 110.679C198.667 111.828 200.015 113.376 200.764 115.323L201.813 109.481H216.493L209.153 151.051C208.454 154.996 207.081 158.541 205.033 161.687C202.986 164.883 200.215 167.429 196.719 169.327C193.224 171.224 189.055 172.173 184.211 172.173C178.069 172.173 173.3 170.775 169.905 167.979C166.559 165.232 164.886 161.462 164.886 156.669L164.961 155.171H179.417C179.517 156.519 180.091 157.567 181.14 158.316C182.239 159.065 183.712 159.44 185.559 159.44C190.553 159.44 193.524 156.644 194.472 151.051L195.446 145.658C193.998 147.606 192.1 149.153 189.754 150.302C187.457 151.45 184.885 152.025 182.039 152.025C177.645 152.025 174.099 150.577 171.403 147.68C168.756 144.734 167.433 140.74 167.433 135.696C167.433 134.048 167.583 132.301 167.883 130.453C168.681 126.109 170.155 122.314 172.302 119.068C174.449 115.823 177.02 113.326 180.016 111.578C183.062 109.83 186.258 108.957 189.604 108.957ZM198.143 130.453C198.292 129.704 198.367 129.005 198.367 128.356C198.367 126.259 197.768 124.636 196.57 123.487C195.421 122.339 193.923 121.765 192.076 121.765C189.878 121.765 187.906 122.539 186.158 124.087C184.411 125.585 183.312 127.707 182.863 130.453C182.713 131.202 182.638 131.926 182.638 132.625C182.638 134.723 183.212 136.345 184.361 137.494C185.559 138.642 187.082 139.217 188.93 139.217C191.127 139.217 193.099 138.443 194.847 136.895C196.595 135.347 197.693 133.2 198.143 130.453ZM233.023 105.586C230.726 105.586 228.903 105.012 227.555 103.863C226.257 102.715 225.608 101.242 225.608 99.4442C225.608 97.8463 226.032 96.3733 226.881 95.0251C227.78 93.6269 228.978 92.5283 230.476 91.7294C232.024 90.8805 233.747 90.4561 235.644 90.4561C237.941 90.4561 239.739 91.0553 241.037 92.2537C242.386 93.4022 243.06 94.9002 243.06 96.7478C243.06 98.3457 242.61 99.8187 241.711 101.167C240.863 102.515 239.664 103.589 238.116 104.388C236.568 105.187 234.87 105.586 233.023 105.586ZM239.614 109.481L232.199 151.5H217.444L224.934 109.481H239.614ZM265.052 96.0737L255.24 151.5H240.484L250.296 96.0737H265.052Z"
    fill="#7B45F7" />
  <path
    d="M262.812 59.5626C262.744 59.8349 262.71 60.1753 262.71 60.5837C262.71 62.4899 263.936 63.4429 266.386 63.4429H271.798L268.326 82.7427H259.749C246.338 82.7427 239.632 77.0583 239.632 65.6895C239.632 63.6472 239.836 61.4687 240.245 59.1541L242.9 44.0411H235.752L239.122 25.1498H246.27L248.72 11.2622H271.39L268.939 25.1498H278.334L274.964 44.0411H265.569L262.812 59.5626Z"
    fill="#35BE97" />
  <path
    d="M159.194 50.5638C159.194 67.7311 173.11 81.6477 190.277 81.6477C197.311 81.6477 221.359 81.6477 221.359 81.6477C221.359 81.6477 215.974 68.7171 218.129 64.3816C220.198 60.2191 221.361 55.5275 221.361 50.5638C221.361 33.3966 207.445 19.4799 190.277 19.4799C173.11 19.4799 159.194 33.3966 159.194 50.5638Z"
    stroke="#35BE97" stroke-width="15" stroke-linecap="round" stroke-linejoin="round" />
</svg>